<svg xmlns="http://www.w3.org/2000/svg" width="275.969" height="298.205" viewBox="0 0 275.969 298.205">
  <path id="Fotter_Side_logo_" data-name="Fotter Side logo " d="M176.747,298.208l-21.68-18.639A15.964,15.964,0,0,1,150.943,274H.878a.88.88,0,0,1-.88-.88V251.459a.88.88,0,0,1,.88-.88H154.55l17.242-41.289H63.528a.88.88,0,0,1-.88-.88V186.751a.88.88,0,0,1,.88-.879H181.571l17.242-41.289h-71.3a.88.88,0,0,1-.88-.88V122.044a.88.88,0,0,1,.88-.88h81.078l17.493-41.891h-46.5a.88.88,0,0,1-.88-.88V56.733a.88.88,0,0,1,.88-.88h56.281l20.09-48.109A15.285,15.285,0,0,1,262.544,0h12.733q.35.184.69.389V298.208Z" transform="translate(0.002 -0.003)" fill="#38323d"/>
</svg>
