<svg id="Group_331" data-name="Group 331" xmlns="http://www.w3.org/2000/svg" width="252.926" height="41.916" viewBox="0 0 252.926 41.916">
  <g id="Group_330" data-name="Group 330">
    <g id="Group_3" data-name="Group 3">
      <path id="Path_198" data-name="Path 198" d="M247.621,55.479l12.212-28.163a1.658,1.658,0,0,1,3.188.774V66.363a1.668,1.668,0,0,1-2.688,1.447L248.122,57.7A1.92,1.92,0,0,1,247.621,55.479Z" transform="translate(-231.027 -26.27)" fill="#d76b4f"/>
      <rect id="Rectangle_394" data-name="Rectangle 394" width="18.426" height="2.618" rx="0.88" transform="translate(0 28.1)" fill="#d76b4f"/>
      <rect id="Rectangle_395" data-name="Rectangle 395" width="18.426" height="2.618" rx="0.88" transform="translate(7.272 20.867)" fill="#d76b4f"/>
      <rect id="Rectangle_396" data-name="Rectangle 396" width="15.234" height="2.618" rx="0.88" transform="translate(14.698 13.634)" fill="#d76b4f"/>
      <rect id="Rectangle_397" data-name="Rectangle 397" width="8.84" height="2.618" rx="0.88" transform="translate(20.742 6.333)" fill="#d76b4f"/>
    </g>
  </g>
  <path id="Path_199" data-name="Path 199" d="M657.214,82.784V95.7a10.066,10.066,0,0,0,.759,4.6,2.952,2.952,0,0,0,2.827,1.358,5.674,5.674,0,0,0,2.152-.572q1.519-.714,1.9.048.55,1.1-.675,1.953a6.818,6.818,0,0,1-3.882,1.048q-3,0-4.22-1.811t-1.224-6v-20.2q0-1.524,1.182-1.525t1.182,1.525v4.193h5.4a1.047,1.047,0,0,1,.823.354,1.283,1.283,0,0,1,.316.882q0,1.239-1.139,1.239Z" transform="translate(-606.873 -70.849)" fill="#fff"/>
  <path id="Path_200" data-name="Path 200" d="M822.456,103.7a.943.943,0,0,1-.8-.4,1.559,1.559,0,0,1-.3-.949V91.627a8.979,8.979,0,0,0-1.2-5.064q-1.2-1.772-4.114-1.772A5.778,5.778,0,0,0,810.514,88a17.829,17.829,0,0,0-1.689,8.313V101.5h2.237a1.115,1.115,0,0,1,.823.316,1.063,1.063,0,0,1,.317.781q0,1.1-1.14,1.1h-6.836q-1.139,0-1.14-1.1a1.063,1.063,0,0,1,.317-.781,1.115,1.115,0,0,1,.823-.316h2.236V76.774h-2.236q-1.139,0-1.14-1.1a1.063,1.063,0,0,1,.317-.781,1.115,1.115,0,0,1,.823-.316h3.421a1.044,1.044,0,0,1,.866.4,1.49,1.49,0,0,1,.312.948v11.86a7.717,7.717,0,0,1,3.06-3.9,8.066,8.066,0,0,1,4.368-1.287q4.051,0,5.76,2.279t1.709,6.667V101.5h2.237a1.114,1.114,0,0,1,.823.316,1.063,1.063,0,0,1,.317.781q0,1.1-1.14,1.1Z" transform="translate(-743.632 -70.838)" fill="#fff"/>
  <path id="Path_201" data-name="Path 201" d="M1137.226,118.274q-1.139,0-1.14-1.1a1.06,1.06,0,0,1,.317-.781,1.113,1.113,0,0,1,.823-.316h2.236V99.791h-2.236q-1.139,0-1.14-1.1a1.056,1.056,0,0,1,.317-.78,1.111,1.111,0,0,1,.823-.317h3.422q1.182,0,1.181,1.35V116.08h2.237a1.115,1.115,0,0,1,.823.316,1.062,1.062,0,0,1,.316.781q0,1.1-1.139,1.1Zm2.131-27.409a1.74,1.74,0,0,1,1.287-.485,1.814,1.814,0,0,1,1.308.485,1.973,1.973,0,0,1,.021,2.616,2.033,2.033,0,0,1-2.613.022,1.725,1.725,0,0,1-.485-1.308,1.783,1.783,0,0,1,.481-1.329Z" transform="translate(-1050.849 -85.416)" fill="#fff"/>
  <path id="Path_202" data-name="Path 202" d="M1296.135,199.239q-1.181,0-1.182-1.35V187.17a8.982,8.982,0,0,0-1.2-5.064q-1.2-1.772-4.12-1.772a5.781,5.781,0,0,0-5.528,3.207,17.813,17.813,0,0,0-1.688,8.313v5.188h2.237a1.115,1.115,0,0,1,.823.316,1.065,1.065,0,0,1,.317.781q0,1.1-1.14,1.1h-6.836q-1.139,0-1.139-1.1a1.061,1.061,0,0,1,.316-.781,1.115,1.115,0,0,1,.823-.316h2.236V180.756h-2.236q-1.139,0-1.139-1.1a1.057,1.057,0,0,1,.316-.78,1.113,1.113,0,0,1,.823-.317h3.417q1.182,0,1.182,1.35v3.418a7.717,7.717,0,0,1,3.06-3.9,8.066,8.066,0,0,1,4.367-1.287q4.052,0,5.76,2.279t1.709,6.667v9.959h2.237a1.116,1.116,0,0,1,.823.316,1.063,1.063,0,0,1,.316.781q0,1.1-1.139,1.1Z" transform="translate(-1180.554 -166.381)" fill="#fff"/>
  <path id="Path_203" data-name="Path 203" d="M1615.435,94.454V101.5h2.237a1.117,1.117,0,0,1,.824.316,1.065,1.065,0,0,1,.316.781q0,1.1-1.139,1.1h-6.836q-1.14,0-1.14-1.1a1.061,1.061,0,0,1,.317-.781,1.115,1.115,0,0,1,.823-.316h2.236V76.773h-2.236q-1.14,0-1.14-1.1a1.061,1.061,0,0,1,.317-.781,1.115,1.115,0,0,1,.823-.316h3.417q1.182,0,1.182,1.35V92.893l8.608-7.68h-1.393q-1.139,0-1.14-1.1a1.062,1.062,0,0,1,.317-.78,1.113,1.113,0,0,1,.823-.317h5.443a1.108,1.108,0,0,1,.822.317,1.056,1.056,0,0,1,.317.78q0,1.1-1.139,1.1h-1.054l-9.326,8.313,9.326,7.975h2.026a1.116,1.116,0,0,1,.823.316,1.065,1.065,0,0,1,.317.781q0,1.1-1.14,1.1h-2.574a2.28,2.28,0,0,1-1.394-.718Z" transform="translate(-1487.789 -70.838)" fill="#fff"/>
  <path id="Path_204" data-name="Path 204" d="M2006.5,103.78a1.125,1.125,0,0,1-.823-.31,1.091,1.091,0,0,1-.317-.811,1.108,1.108,0,0,1,.317-.791,1.084,1.084,0,0,1,.823-.332h1.774l10.211-25.705a1.539,1.539,0,0,1,1.435-1.161,1.39,1.39,0,0,1,1.309,1l10.464,25.872h1.772a1.083,1.083,0,0,1,.823.332,1.1,1.1,0,0,1,.316.79,1.086,1.086,0,0,1-.316.811,1.124,1.124,0,0,1-.823.31h-6.624a1.125,1.125,0,0,1-.823-.31,1.087,1.087,0,0,1-.316-.811,1.1,1.1,0,0,1,.316-.79,1.084,1.084,0,0,1,.823-.332h2.152l-2.743-6.9h-12.789l-2.616,6.9h2.236a1.084,1.084,0,0,1,.823.332,1.109,1.109,0,0,1,.317.79,1.093,1.093,0,0,1-.317.811,1.125,1.125,0,0,1-.823.31Zm7.849-11.4H2025.4l-5.613-13.976Z" transform="translate(-1852.819 -70.923)" fill="#fff"/>
  <path id="Path_205" data-name="Path 205" d="M2421.505,103.7a.944.944,0,0,1-.8-.4,1.548,1.548,0,0,1-.3-.949V91.627a8.977,8.977,0,0,0-1.2-5.064q-1.2-1.772-4.115-1.772A5.779,5.779,0,0,0,2409.563,88a17.84,17.84,0,0,0-1.687,8.313V101.5h2.234a1.118,1.118,0,0,1,.825.316,1.058,1.058,0,0,1,.316.781q0,1.1-1.14,1.1h-6.835q-1.138,0-1.138-1.1a1.062,1.062,0,0,1,.315-.781,1.112,1.112,0,0,1,.822-.316h2.237V76.774h-2.237q-1.138,0-1.138-1.1a1.062,1.062,0,0,1,.315-.781,1.112,1.112,0,0,1,.822-.316h3.419a1.041,1.041,0,0,1,.864.4,1.483,1.483,0,0,1,.318.948v11.86a7.715,7.715,0,0,1,3.059-3.9A8.059,8.059,0,0,1,2415.3,82.6q4.05,0,5.76,2.279t1.709,6.667V101.5h2.236a1.112,1.112,0,0,1,.823.316,1.057,1.057,0,0,1,.316.781q0,1.1-1.139,1.1Z" transform="translate(-2218.876 -70.838)" fill="#fff"/>
  <path id="Path_206" data-name="Path 206" d="M2745.94,181.2a10.44,10.44,0,0,1,14.767,0,12.483,12.483,0,0,1,0,15.4,10.439,10.439,0,0,1-14.768,0,12.479,12.479,0,0,1,0-15.4Zm1.814,13.947a7.845,7.845,0,0,0,11.144,0,10.635,10.635,0,0,0,0-12.49,7.846,7.846,0,0,0-11.145,0,10.638,10.638,0,0,0,0,12.49Z" transform="translate(-2533.607 -166.381)" fill="#fff"/>
  <path id="Path_207" data-name="Path 207" d="M3039.536,185.736l-7.216,18.737a25.8,25.8,0,0,1-3.418,6.793,5.109,5.109,0,0,1-4.135,1.815,6.5,6.5,0,0,1-3.166-.76q-1.351-.76-.97-1.772.378-.971,2.11-.169a5.2,5.2,0,0,0,2.195.506,2.844,2.844,0,0,0,1.455-.38,5.027,5.027,0,0,0,1.117-.866,6.023,6.023,0,0,0,.971-1.561q.506-1.075.781-1.773l.823-2.173-7.6-18.4H3021.3q-1.139,0-1.138-1.1a1.053,1.053,0,0,1,.316-.78,1.108,1.108,0,0,1,.822-.317h5.739a1.112,1.112,0,0,1,.823.317,1.062,1.062,0,0,1,.316.78q0,1.1-1.139,1.1h-1.936l6.241,15.568,5.739-15.571h-1.9q-1.14,0-1.139-1.1a1.06,1.06,0,0,1,.317-.78,1.11,1.11,0,0,1,.822-.317h5.653a1.112,1.112,0,0,1,.822.317,1.058,1.058,0,0,1,.316.78q0,1.1-1.138,1.1Z" transform="translate(-2789.055 -171.362)" fill="#fff"/>
</svg>
