<svg id="noun_secure_282889" xmlns="http://www.w3.org/2000/svg" width="21.538" height="28.584" viewBox="0 0 21.538 28.584">
  <path id="Path_81" data-name="Path 81" d="M78.315,31.561h-.127c-4.991-.326-9.956-3.435-10.019-3.46a.37.37,0,0,0-.507,0c-.063.038-5.029,3.147-10.019,3.46h-.127a.385.385,0,0,0-.355.414V32.1c.1.614,1.723,15.471,2.242,17.9.583,2.6,7.524,6.093,8.3,6.482l.228.1.228-.1c.811-.389,7.752-3.886,8.3-6.482.557-2.445,2.179-17.263,2.242-17.9v-.125A.413.413,0,0,0,78.315,31.561ZM67.447,46.2l-3.369-3.285,1.165-1.153,1.913,1.855,4.015-5.943,1.368.9Z" transform="translate(-57.157 -28)" fill="#919191"/>
</svg>
