<svg xmlns="http://www.w3.org/2000/svg" width="334.108" height="56.778" viewBox="0 0 334.108 56.778">
  <g id="Group_36471" data-name="Group 36471" transform="translate(15848.256 -1346.621)">
    <g id="Group_36443" data-name="Group 36443" transform="translate(-15791.767 1349.988)">
      <path id="Path_199" data-name="Path 199" d="M658.052,85.689v17.49q0,4.389,1.029,6.228t3.83,1.84a7.685,7.685,0,0,0,2.915-.775q2.058-.967,2.572.065.745,1.484-.915,2.646a9.234,9.234,0,0,1-5.258,1.42q-4.059,0-5.716-2.453t-1.658-8.131V76.655q0-2.065,1.6-2.065t1.6,2.065v5.679h7.317a1.418,1.418,0,0,1,1.115.479,1.738,1.738,0,0,1,.428,1.195q0,1.678-1.542,1.678Z" transform="translate(-654.85 -74.589)" fill="#38323d"/>
      <path id="Path_200" data-name="Path 200" d="M829.323,114.02a1.278,1.278,0,0,1-1.086-.543,2.112,2.112,0,0,1-.4-1.286V97.672a12.164,12.164,0,0,0-1.629-6.859q-1.628-2.4-5.573-2.4a7.828,7.828,0,0,0-7.487,4.344q-2.286,4.344-2.287,11.261v7.027h3.03a1.51,1.51,0,0,1,1.115.428,1.44,1.44,0,0,1,.429,1.058q0,1.485-1.544,1.486h-9.26q-1.543,0-1.544-1.486a1.44,1.44,0,0,1,.429-1.058,1.51,1.51,0,0,1,1.115-.428h3.029V77.552h-3.029q-1.543,0-1.544-1.486a1.44,1.44,0,0,1,.429-1.058,1.51,1.51,0,0,1,1.115-.428h4.634a1.414,1.414,0,0,1,1.173.542,2.017,2.017,0,0,1,.422,1.284V92.471a10.454,10.454,0,0,1,4.145-5.288,10.926,10.926,0,0,1,5.916-1.743q5.488,0,7.8,3.087t2.315,9.031v13.49h3.03a1.51,1.51,0,0,1,1.115.428,1.44,1.44,0,0,1,.429,1.058q0,1.485-1.544,1.486Z" transform="translate(-787.54 -74.578)" fill="#38323d"/>
      <path id="Path_201" data-name="Path 201" d="M1137.63,128.165q-1.543,0-1.544-1.486a1.437,1.437,0,0,1,.429-1.058,1.507,1.507,0,0,1,1.115-.428h3.028V103.128h-3.028q-1.543,0-1.544-1.486a1.43,1.43,0,0,1,.429-1.057,1.505,1.505,0,0,1,1.115-.429h4.635q1.6,0,1.6,1.829v23.208h3.03a1.51,1.51,0,0,1,1.115.428,1.439,1.439,0,0,1,.428,1.058q0,1.485-1.543,1.486Zm2.886-37.127a2.357,2.357,0,0,1,1.743-.658,2.457,2.457,0,0,1,1.772.658,2.673,2.673,0,0,1,.029,3.544,2.754,2.754,0,0,1-3.539.029,2.337,2.337,0,0,1-.657-1.771,2.415,2.415,0,0,1,.652-1.8Z" transform="translate(-1085.615 -88.723)" fill="#38323d"/>
      <path id="Path_202" data-name="Path 202" d="M1303.034,206.72q-1.6,0-1.6-1.829V190.372a12.165,12.165,0,0,0-1.629-6.859q-1.628-2.4-5.58-2.4a7.831,7.831,0,0,0-7.489,4.344q-2.287,4.344-2.286,11.261v7.027h3.03a1.511,1.511,0,0,1,1.115.428,1.442,1.442,0,0,1,.429,1.058q0,1.485-1.544,1.486h-9.26q-1.543,0-1.543-1.486a1.438,1.438,0,0,1,.428-1.058,1.511,1.511,0,0,1,1.115-.428h3.029v-22.06h-3.029q-1.543,0-1.543-1.486a1.432,1.432,0,0,1,.428-1.057,1.508,1.508,0,0,1,1.115-.429h4.629q1.6,0,1.6,1.829v4.63a10.453,10.453,0,0,1,4.145-5.288,10.924,10.924,0,0,1,5.915-1.743q5.489,0,7.8,3.087t2.314,9.031v13.491h3.03a1.51,1.51,0,0,1,1.115.428,1.437,1.437,0,0,1,.428,1.058q0,1.485-1.543,1.486Z" transform="translate(-1211.46 -167.279)" fill="#38323d"/>
      <path id="Path_203" data-name="Path 203" d="M1617.47,101.5v9.544h3.03a1.513,1.513,0,0,1,1.115.428,1.441,1.441,0,0,1,.427,1.058q0,1.485-1.543,1.486h-9.26q-1.544,0-1.544-1.486a1.437,1.437,0,0,1,.429-1.058,1.51,1.51,0,0,1,1.115-.428h3.029V77.552h-3.029q-1.544,0-1.544-1.486a1.437,1.437,0,0,1,.429-1.058,1.51,1.51,0,0,1,1.115-.428h4.629q1.6,0,1.6,1.829V99.386l11.661-10.4h-1.887q-1.543,0-1.544-1.486a1.438,1.438,0,0,1,.429-1.057,1.508,1.508,0,0,1,1.116-.429h7.373a1.5,1.5,0,0,1,1.113.429,1.429,1.429,0,0,1,.429,1.057q0,1.487-1.543,1.486h-1.428l-12.633,11.261,12.633,10.8h2.744a1.511,1.511,0,0,1,1.115.428,1.444,1.444,0,0,1,.429,1.058q0,1.485-1.544,1.486h-3.487a3.089,3.089,0,0,1-1.888-.972Z" transform="translate(-1509.553 -74.578)" fill="#38323d"/>
      <path id="Path_204" data-name="Path 204" d="M2006.9,114.1a1.523,1.523,0,0,1-1.114-.42,1.476,1.476,0,0,1-.429-1.1,1.5,1.5,0,0,1,.429-1.071,1.467,1.467,0,0,1,1.114-.45h2.4l13.832-34.82a2.084,2.084,0,0,1,1.943-1.573,1.882,1.882,0,0,1,1.773,1.352l14.175,35.046h2.4a1.469,1.469,0,0,1,1.115.45,1.494,1.494,0,0,1,.428,1.071,1.473,1.473,0,0,1-.428,1.1,1.523,1.523,0,0,1-1.115.42h-8.973a1.524,1.524,0,0,1-1.115-.42,1.472,1.472,0,0,1-.428-1.1,1.5,1.5,0,0,1,.428-1.071,1.469,1.469,0,0,1,1.115-.45h2.915l-3.715-9.353h-17.323l-3.544,9.353h3.029a1.469,1.469,0,0,1,1.115.45,1.5,1.5,0,0,1,.429,1.071,1.48,1.48,0,0,1-.429,1.1,1.525,1.525,0,0,1-1.115.42Zm10.632-15.438h14.976l-7.6-18.932Z" transform="translate(-1863.72 -74.66)" fill="#38323d"/>
      <path id="Path_205" data-name="Path 205" d="M2428.373,114.02a1.278,1.278,0,0,1-1.086-.543,2.1,2.1,0,0,1-.4-1.286V97.672a12.162,12.162,0,0,0-1.628-6.859q-1.629-2.4-5.574-2.4a7.828,7.828,0,0,0-7.488,4.344q-2.284,4.344-2.285,11.261v7.027h3.026a1.515,1.515,0,0,1,1.117.428,1.434,1.434,0,0,1,.427,1.058q0,1.485-1.545,1.486h-9.259q-1.541,0-1.541-1.486a1.44,1.44,0,0,1,.427-1.058,1.507,1.507,0,0,1,1.114-.428h3.03V77.552h-3.03q-1.541,0-1.541-1.486a1.44,1.44,0,0,1,.427-1.058,1.507,1.507,0,0,1,1.114-.428h4.631a1.41,1.41,0,0,1,1.17.542,2.01,2.01,0,0,1,.431,1.284V92.471a10.448,10.448,0,0,1,4.144-5.288,10.916,10.916,0,0,1,5.915-1.743q5.485,0,7.8,3.087t2.315,9.031v13.491h3.029a1.506,1.506,0,0,1,1.115.428,1.433,1.433,0,0,1,.428,1.058q0,1.485-1.543,1.486Z" transform="translate(-2218.884 -74.578)" fill="#38323d"/>
      <path id="Path_206" data-name="Path 206" d="M2746.884,182.284q3.6-4.144,10-4.144t10,4.144a16.909,16.909,0,0,1,0,20.863q-3.6,4.146-10,4.145t-10-4.145a16.9,16.9,0,0,1,0-20.863Zm2.458,18.892a10.626,10.626,0,0,0,15.1,0,14.407,14.407,0,0,0,0-16.919,10.629,10.629,0,0,0-15.1,0,14.411,14.411,0,0,0,0,16.919Z" transform="translate(-2524.248 -167.279)" fill="#38323d"/>
      <path id="Path_207" data-name="Path 207" d="M3046.4,186.516l-9.775,25.381q-2.572,6.745-4.63,9.2a6.919,6.919,0,0,1-5.6,2.458,8.81,8.81,0,0,1-4.288-1.029q-1.83-1.029-1.314-2.4.512-1.315,2.858-.229a7.037,7.037,0,0,0,2.973.686,3.853,3.853,0,0,0,1.971-.515,6.812,6.812,0,0,0,1.513-1.172,8.192,8.192,0,0,0,1.315-2.114q.686-1.457,1.058-2.4l1.115-2.943-10.289-24.922h-1.6q-1.543,0-1.542-1.486a1.427,1.427,0,0,1,.428-1.057,1.5,1.5,0,0,1,1.113-.429h7.773a1.505,1.505,0,0,1,1.115.429,1.437,1.437,0,0,1,.428,1.057q0,1.487-1.543,1.486h-2.622l8.455,21.088,7.774-21.092h-2.573q-1.544,0-1.543-1.486a1.436,1.436,0,0,1,.43-1.057,1.5,1.5,0,0,1,1.114-.429h7.657a1.5,1.5,0,0,1,1.113.429,1.435,1.435,0,0,1,.429,1.057q0,1.487-1.542,1.486Z" transform="translate(-2772.096 -172.111)" fill="#38323d"/>
    </g>
    <g id="Group_36444" data-name="Group 36444" transform="translate(-15848.256 1346.621)">
      <path id="Path_198" data-name="Path 198" d="M247.677,65.836l16.541-38.148a2.246,2.246,0,0,1,4.319,1.049V80.579a2.26,2.26,0,0,1-3.641,1.96L248.357,68.846A2.6,2.6,0,0,1,247.677,65.836Z" transform="translate(-225.2 -26.27)" fill="#d76b4f"/>
      <rect id="Rectangle_394" data-name="Rectangle 394" width="24.96" height="3.546" rx="0.88" transform="translate(0 38.063)" fill="#d76b4f"/>
      <rect id="Rectangle_395" data-name="Rectangle 395" width="24.96" height="3.546" rx="0.88" transform="translate(9.85 28.266)" fill="#d76b4f"/>
      <rect id="Rectangle_396" data-name="Rectangle 396" width="20.636" height="3.546" rx="0.88" transform="translate(19.91 18.468)" fill="#d76b4f"/>
      <rect id="Rectangle_397" data-name="Rectangle 397" width="11.975" height="3.546" rx="0.88" transform="translate(28.097 8.579)" fill="#d76b4f"/>
    </g>
  </g>
</svg>
